<svg id="Layer_1" data-name="Layer 1" xmlns="http://www.w3.org/2000/svg" width="32" height="32" viewBox="0 0 32 32"><title>Amazon S3</title><g id="ICONS_-_EDIT" data-name="ICONS - EDIT"><path d="M15.16,30.63c-4,0-10.28-.89-10.34-3.29L2,6.35a.6.6,0,1,1,1.17-.23c.32,1.22,5.05,2.93,12,2.93s11.71-1.7,12-2.93a.59.59,0,0,1,.7-.47.6.6,0,0,1,.47.7l-2.88,21c0,.81-.75,1.5-2.17,2.06a13.11,13.11,0,0,1-1.94.58A27.82,27.82,0,0,1,15.16,30.63ZM3.39,8,6,27.22v.07c0,.74,3.58,2.17,9.18,2.17a27,27,0,0,0,6-.62,11.89,11.89,0,0,0,1.76-.53c1.14-.45,1.44-.86,1.44-1a.09.09,0,0,1,0-.07L26.93,8c-2.35,1.46-7.28,2.22-11.77,2.22S5.76,9.44,3.39,8Z" style="fill:#fff"/><path d="M15.16,10.2C9.26,10.2,2.65,8.88,2,6.42V6.34L2,6.08V6c0-2.74,7-4.64,13.21-4.64S28.37,3.27,28.37,6v.07l0,.26v.08C27.67,8.88,21.05,10.2,15.16,10.2Zm-12-4C3.51,7.37,8.21,9,15.14,9s11.63-1.66,12-2.88V6c0-1.23-5-3.44-12-3.44S3.2,4.75,3.12,6Z" style="fill:#fff"/><path d="M28.45,18.93A9.55,9.55,0,0,1,26,18.49a78.4,78.4,0,0,1-10.46-4.23l.51-1.06a81.07,81.07,0,0,0,10.27,4.17c1.82.51,2.38.39,2.51.33-.06-.15-.42-.73-2.51-1.88l-.08-.05.58-1,.08,0c2,1.11,3,1.95,3.11,2.74a1.07,1.07,0,0,1-.24.92A1.63,1.63,0,0,1,28.45,18.93Z" style="fill:#fff"/><path d="M15.16,14.7a1.32,1.32,0,1,1,1.32-1.32h0A1.32,1.32,0,0,1,15.16,14.7Zm0-1.46a.15.15,0,0,0-.15.14c0,.16.3.16.3,0A.15.15,0,0,0,15.16,13.24Z" style="fill:#fff"/></g></svg>