<svg id="Layer_1" data-name="Layer 1" xmlns="http://www.w3.org/2000/svg" width="32" height="32" viewBox="0 0 32 32"><title>Amazon CloudFront</title><g id="ICONS_-_EDIT" data-name="ICONS - EDIT"><g id="cloudfront"><path d="M21.1,29.68l-1.05-.54a17.79,17.79,0,0,0,1.34-3.34l1.13.33A18.79,18.79,0,0,1,21.1,29.68Zm1.09-10.8a18.81,18.81,0,0,0-3.11-9.26l1-.64a20,20,0,0,1,3.3,9.82ZM14.41,4.63A18,18,0,0,0,11.69,3l.53-1a18.83,18.83,0,0,1,2.91,1.77Z" style="fill:#fff"/><path d="M19.23,20.37a17.68,17.68,0,0,0-6.59-4.13l.41-1.12a18.76,18.76,0,0,1,7,4.43Z" style="fill:#fff"/><path d="M24.11,27.42a18.16,18.16,0,0,0-.74-1.68l1.06-.53q.43.87.78,1.77Z" style="fill:#fff"/><path d="M20.76,30l-.37-1.11a13.35,13.35,0,0,0,3.91-2.11l.72.93A14.16,14.16,0,0,1,20.76,30Z" style="fill:#fff"/><path d="M2,15.74l-.27-1.15a18,18,0,0,1,4-.52v1.18A16.73,16.73,0,0,0,2,15.74Z" style="fill:#fff"/><path d="M11.68,12l-1-.64a16.9,16.9,0,0,1,3.17-3.78l.78.89A15.43,15.43,0,0,0,11.68,12Z" style="fill:#fff"/><path d="M20.46,5l-.41-1.11a18.86,18.86,0,0,1,2.76-.78L23,4.25A15,15,0,0,0,20.46,5Z" style="fill:#fff"/><path d="M8.77,28.72a18.78,18.78,0,0,1-1.52-7.08,13.1,13.1,0,0,1,.37-2.79c0-.21.09-.42.13-.64l1.18.23c0,.23-.09.44-.13.65a11.59,11.59,0,0,0-.34,2.55,17.58,17.58,0,0,0,1.4,6.63Z" style="fill:#fff"/><path d="M16,30.76A14.75,14.75,0,0,1,1.25,16a8.82,8.82,0,0,1,0-.89A14.76,14.76,0,1,1,25,27.68,14.36,14.36,0,0,1,20.76,30,14,14,0,0,1,16,30.76ZM16,2.43A13.82,13.82,0,0,0,12.12,3,13.58,13.58,0,0,0,2.46,15.2V16A13.58,13.58,0,0,0,16,29.58a13.59,13.59,0,0,0,8.3-2.84A13.57,13.57,0,0,0,16,2.43Z" style="fill:#fff"/><path d="M17.43,9.18a2.62,2.62,0,1,1,2.62-2.62,2.61,2.61,0,0,1-2.62,2.62Zm0-4a1.43,1.43,0,1,0,1.44,1.43h0A1.43,1.43,0,0,0,17.43,5.14Z" style="fill:#fff"/><path d="M9.39,17.41A2.62,2.62,0,1,1,12,14.8v0A2.61,2.61,0,0,1,9.39,17.41Zm0-4.05a1.44,1.44,0,1,0,1.43,1.47,1.44,1.44,0,0,0-1.43-1.47Z" style="fill:#fff"/><path d="M22.36,25A2.62,2.62,0,1,1,25,22.36h0A2.61,2.61,0,0,1,22.37,25Zm0-4.05a1.44,1.44,0,1,0,1.44,1.44,1.44,1.44,0,0,0-1.44-1.44Z" style="fill:#fff"/></g></g></svg>