<svg id="Layer_1" data-name="Layer 1" xmlns="http://www.w3.org/2000/svg" width="32" height="32" viewBox="0 0 32 32"><title>Amazon EC2</title><g id="ICONS_-_EDIT" data-name="ICONS - EDIT"><path d="M29.36,17.74h-2.9V16.58h2.9V2.64H15.42v2.9H14.26V2.64a1.16,1.16,0,0,1,1.16-1.16H29.36a1.16,1.16,0,0,1,1.16,1.16V16.58A1.16,1.16,0,0,1,29.36,17.74Z" style="fill:#fff"/><path d="M16.58,30.52H2.64a1.16,1.16,0,0,1-1.16-1.16V15.42a1.16,1.16,0,0,1,1.16-1.16h2.9v1.16H2.64V29.36H16.58v-2.9h1.16v2.9A1.16,1.16,0,0,1,16.58,30.52Z" style="fill:#fff"/><path d="M22.29,23.55H9.72a1.26,1.26,0,0,1-1.27-1.26V9.71A1.26,1.26,0,0,1,9.72,8.45H22.29a1.27,1.27,0,0,1,1.26,1.26V22.29A1.27,1.27,0,0,1,22.29,23.55ZM9.72,9.61a.1.1,0,0,0-.11.1h0V22.29a.11.11,0,0,0,.1.1H22.29a.11.11,0,0,0,.1-.1h0V9.71a.11.11,0,0,0-.1-.1H9.72Z" style="fill:#fff"/><rect x="9.61" y="6.71" width="1.16" height="2.32" style="fill:#fff"/><rect x="12.51" y="6.71" width="1.16" height="2.32" style="fill:#fff"/><rect x="15.42" y="6.71" width="1.16" height="2.32" style="fill:#fff"/><rect x="18.32" y="6.71" width="1.16" height="2.32" style="fill:#fff"/><rect x="21.23" y="6.71" width="1.16" height="2.32" style="fill:#fff"/><rect x="9.61" y="22.97" width="1.16" height="2.32" style="fill:#fff"/><rect x="12.51" y="22.97" width="1.16" height="2.32" style="fill:#fff"/><rect x="15.42" y="22.97" width="1.16" height="2.32" style="fill:#fff"/><rect x="18.32" y="22.97" width="1.16" height="2.32" style="fill:#fff"/><rect x="21.23" y="22.97" width="1.16" height="2.32" style="fill:#fff"/><rect x="6.71" y="21.23" width="2.32" height="1.16" style="fill:#fff"/><rect x="6.71" y="18.32" width="2.32" height="1.16" style="fill:#fff"/><rect x="6.71" y="15.42" width="2.32" height="1.16" style="fill:#fff"/><rect x="6.71" y="12.51" width="2.32" height="1.16" style="fill:#fff"/><rect x="6.71" y="9.61" width="2.32" height="1.16" style="fill:#fff"/><rect x="22.97" y="21.23" width="2.32" height="1.16" style="fill:#fff"/><rect x="22.97" y="18.32" width="2.32" height="1.16" style="fill:#fff"/><rect x="22.97" y="15.42" width="2.32" height="1.16" style="fill:#fff"/><rect x="22.97" y="12.51" width="2.32" height="1.16" style="fill:#fff"/><rect x="22.97" y="9.61" width="2.32" height="1.16" style="fill:#fff"/></g></svg>