<svg id="Layer_1" data-name="Layer 1" xmlns="http://www.w3.org/2000/svg" width="32" height="32" viewBox="0 0 32 32"><title>Amazon RDS</title><g id="ICONS_-_EDIT" data-name="ICONS - EDIT"><path d="M16,13c-3.16,0-6.57-.79-6.57-2.53S12.83,7.94,16,7.94s6.57.8,6.57,2.54S19.14,13,16,13Zm0-3.87c-3.48,0-5.38.95-5.38,1.34S12.5,11.82,16,11.82s5.38-1,5.38-1.34S19.47,9.12,16,9.12Z" style="fill:#fff"/><path d="M16,24.06c-3.17,0-6.57-.79-6.54-2.56V10.43l1.16,0V21.53c0,.39,1.89,1.34,5.38,1.34s5.38-.95,5.38-1.34V10.46h1.19V21.53C22.57,23.27,19.17,24.06,16,24.06Z" style="fill:#fff"/><path d="M16,16.87c-3.16,0-6.57-.8-6.57-2.54h1.19c0,.39,1.88,1.34,5.38,1.34s5.38-.95,5.38-1.34h1.19C22.57,16.07,19.17,16.87,16,16.87Z" style="fill:#fff"/><path d="M16,20.67c-3.16,0-6.57-.79-6.57-2.54h1.19c0,.39,1.88,1.34,5.38,1.34s5.38-.95,5.38-1.34h1.19C22.57,19.88,19.17,20.67,16,20.67Z" style="fill:#fff"/><path d="M7,30.94H1.66a.6.6,0,0,1-.6-.6V25h1.2v4.78H7Z" style="fill:#fff"/><rect x="0.53" y="26.99" width="7.77" height="1.2" transform="translate(-18.22 11.2) rotate(-45)" style="fill:#fff"/><path d="M30.34,30.94H25v-1.2h4.78V25h1.2v5.38A.6.6,0,0,1,30.34,30.94Z" style="fill:#fff"/><rect x="27.02" y="23.78" width="1.2" height="7.68" transform="translate(-11.44 27.62) rotate(-45)" style="fill:#fff"/><path d="M30.94,7h-1.2V2.26H25V1.06h5.38a.6.6,0,0,1,.6.6Z" style="fill:#fff"/><rect x="23.78" y="3.78" width="7.68" height="1.2" transform="translate(5 20.81) rotate(-45)" style="fill:#fff"/><path d="M2.26,7H1.06V1.66a.6.6,0,0,1,.6-.6H7v1.2H2.26Z" style="fill:#fff"/><rect x="3.81" y="0.51" width="1.2" height="7.77" transform="translate(-1.82 4.41) rotate(-45)" style="fill:#fff"/><path d="M6.83,21.38C3.18,20,1.09,18,1.09,15.84s2.09-4.18,5.74-5.5l.41,1.12c-3.1,1.12-4.95,2.75-4.95,4.38s1.85,3.27,5,4.39Z" style="fill:#fff"/><path d="M24.83,21.48l-.38-1.13c3.32-1.12,5.29-2.81,5.29-4.51s-2-3.37-5.29-4.49l.38-1.13c3.89,1.3,6.11,3.39,6.11,5.62S28.72,20.18,24.83,21.48Z" style="fill:#fff"/></g></svg>