<svg id="Layer_1" data-name="Layer 1" xmlns="http://www.w3.org/2000/svg" width="32" height="32" viewBox="0 0 32 32"><title>AWS IAM</title><g id="ICONS_-_EDIT" data-name="ICONS - EDIT"><path d="M29,26.86H3a1.64,1.64,0,0,1-1.64-1.64V6.78A1.64,1.64,0,0,1,3,5.14H29a1.64,1.64,0,0,1,1.64,1.64V25.22A1.64,1.64,0,0,1,29,26.86ZM3,6.32a.47.47,0,0,0-.47.46h0V25.22a.47.47,0,0,0,.47.46H29a.47.47,0,0,0,.47-.46V6.78A.47.47,0,0,0,29,6.32Z" style="fill:#fff"/><rect x="17.76" y="12.77" width="5.87" height="1.17" style="fill:#fff"/><rect x="25.98" y="12.77" width="1.17" height="1.17" style="fill:#fff"/><path d="M14.83,23.92H4.26a.59.59,0,0,1-.42-.17.58.58,0,0,1-.17-.41V15.12a.6.6,0,0,1,.59-.59H14.83a.59.59,0,0,1,.58.59v8.22A.58.58,0,0,1,14.83,23.92Zm-10-1.17h9.39v-7H4.85Z" style="fill:#fff"/><path d="M6.61,15.12H5.43V11.36c0-1.81,1.85-3.28,4.11-3.28h0A4.61,4.61,0,0,1,12.41,9a3,3,0,0,1,1.24,2.35v3.17H12.48V11.6A2.16,2.16,0,0,0,11.66,10a3.28,3.28,0,0,0-2.12-.74h0c-1.61,0-2.93,1-2.93,2.35Z" style="fill:#fff"/><rect x="8.96" y="19.23" width="1.17" height="2.35" style="fill:#fff"/><rect x="12.48" y="17.47" width="2.35" height="1.17" style="fill:#fff"/><rect x="12.48" y="19.82" width="2.35" height="1.17" style="fill:#fff"/><path d="M9.54,20.07a1.72,1.72,0,1,1,1.72-1.72A1.72,1.72,0,0,1,9.54,20.07Zm0-2.47a.75.75,0,0,0-.74.75.75.75,0,0,0,1.49,0,.75.75,0,0,0-.75-.75Z" style="fill:#fff"/><rect x="17.76" y="15.71" width="4.11" height="1.17" style="fill:#fff"/><rect x="24.22" y="15.71" width="2.93" height="1.17" style="fill:#fff"/><rect x="17.76" y="18.64" width="7.63" height="1.17" style="fill:#fff"/></g></svg>