<svg id="Layer_1" data-name="Layer 1" xmlns="http://www.w3.org/2000/svg" width="32" height="32" viewBox="0 0 32 32"><title>AWS CLI</title><g id="ICONS_-_EDIT" data-name="ICONS - EDIT"><path d="M30,30H25.94V28.86h3.51V3.14H2.55V28.86H18.92V30H2a.58.58,0,0,1-.58-.58V2.55A.58.58,0,0,1,2,2H30a.58.58,0,0,1,.58.58v26.9A.58.58,0,0,1,30,30Z" style="fill:#fff"/><rect x="1.97" y="6.65" width="28.06" height="1.17" style="fill:#fff"/><rect x="3.72" y="4.31" width="1.17" height="1.17" style="fill:#fff"/><rect x="6.06" y="4.31" width="1.17" height="1.17" style="fill:#fff"/><rect x="8.4" y="4.31" width="1.17" height="1.17" style="fill:#fff"/><path d="M8.1,23.78,7.28,23l5.21-5.2L7.3,12.56l.82-.83,5.61,5.61a.58.58,0,0,1,.17.41.57.57,0,0,1-.17.41Z" style="fill:#fff"/><rect x="14.83" y="20.68" width="8.77" height="1.17" style="fill:#fff"/></g></svg>