<svg xmlns="http://www.w3.org/2000/svg" width="120" height="80" viewBox="0 0 120 80"><title>nav</title><g id="Layer_1" data-name="Layer 1"><path d="M68.49,63.56H48.3a1.41,1.41,0,0,1-1.41-1.41V13.25a1.41,1.41,0,0,1,1.41-1.41H70.87l12,12v6.3" style="fill:none;stroke:#aab7b8;stroke-linejoin:round;stroke-width:2px"/><polyline points="70.46 11.84 70.46 24.28 82.9 24.28" style="fill:none;stroke:#aab7b8;stroke-linejoin:round;stroke-width:2px"/><line x1="51.47" y1="26.25" x2="65.88" y2="26.25" style="fill:none;stroke:#aab7b8;stroke-linejoin:round;stroke-width:2px"/><line x1="51.47" y1="32.79" x2="65.88" y2="32.79" style="fill:none;stroke:#aab7b8;stroke-linejoin:round;stroke-width:2px"/><line x1="51.47" y1="39.34" x2="65.88" y2="39.34" style="fill:none;stroke:#aab7b8;stroke-linejoin:round;stroke-width:2px"/><rect x="71.77" y="43.92" width="9.03" height="24.22" style="fill:none;stroke:#aab7b8;stroke-linejoin:round;stroke-width:2px"/><rect x="89.83" y="43.92" width="9.03" height="24.22" transform="translate(188.7 112.07) rotate(-180)" style="fill:none;stroke:#aab7b8;stroke-linejoin:round;stroke-width:2px"/><rect x="80.8" y="33.45" width="9.03" height="34.7" style="fill:none;stroke:#aab7b8;stroke-linejoin:round;stroke-width:2px"/><polygon points="13.48 42.56 13.48 42.56 13.48 42.56 13.48 42.56" style="fill:#fff;stroke:#aab7b8;stroke-linejoin:round;stroke-width:2px"/><line x1="3.19" y1="22.75" x2="16.88" y2="30.57" style="fill:none;stroke:#aab7b8;stroke-linejoin:round;stroke-width:2px"/><line x1="16.76" y1="30.69" x2="30.4" y2="26.49" style="fill:none;stroke:#aab7b8;stroke-linejoin:round;stroke-width:2px"/><polyline points="12.7 16.01 16.96 30.8 9.64 43.61" style="fill:none;stroke:#aab7b8;stroke-linejoin:round;stroke-width:2px"/><path d="M31.26,30.74a15.14,15.14,0,1,0-11.8,14.63" style="fill:none;stroke:#aab7b8;stroke-linejoin:round;stroke-width:2px"/><rect x="23.49" y="34.11" width="23.57" height="34.73" rx="1.63" ry="1.63" style="fill:none;stroke:#aab7b8;stroke-linejoin:round;stroke-width:2px"/><rect x="26.81" y="38.6" width="16.93" height="6.88" rx="1.13" ry="1.13" style="fill:none;stroke:#aab7b8;stroke-linejoin:round;stroke-width:2px"/><line x1="27.29" y1="49.93" x2="30.39" y2="49.93" style="fill:none;stroke:#aab7b8;stroke-linejoin:round;stroke-width:2px"/><line x1="33.72" y1="49.93" x2="36.82" y2="49.93" style="fill:none;stroke:#aab7b8;stroke-linejoin:round;stroke-width:2px"/><line x1="40.16" y1="49.93" x2="43.25" y2="49.93" style="fill:none;stroke:#aab7b8;stroke-linejoin:round;stroke-width:2px"/><line x1="27.29" y1="54.6" x2="30.39" y2="54.6" style="fill:none;stroke:#aab7b8;stroke-linejoin:round;stroke-width:2px"/><line x1="33.72" y1="54.6" x2="36.82" y2="54.6" style="fill:none;stroke:#aab7b8;stroke-linejoin:round;stroke-width:2px"/><line x1="40.16" y1="54.6" x2="43.25" y2="54.6" style="fill:none;stroke:#aab7b8;stroke-linejoin:round;stroke-width:2px"/><line x1="27.29" y1="59.26" x2="30.39" y2="59.26" style="fill:none;stroke:#aab7b8;stroke-linejoin:round;stroke-width:2px"/><line x1="33.72" y1="59.26" x2="36.82" y2="59.26" style="fill:none;stroke:#aab7b8;stroke-linejoin:round;stroke-width:2px"/><line x1="40.16" y1="59.26" x2="43.25" y2="59.26" style="fill:none;stroke:#aab7b8;stroke-linejoin:round;stroke-width:2px"/><line x1="27.29" y1="63.92" x2="30.39" y2="63.92" style="fill:none;stroke:#aab7b8;stroke-linejoin:round;stroke-width:2px"/><line x1="33.72" y1="63.92" x2="36.82" y2="63.92" style="fill:none;stroke:#aab7b8;stroke-linejoin:round;stroke-width:2px"/><line x1="40.16" y1="63.92" x2="43.25" y2="63.92" style="fill:none;stroke:#aab7b8;stroke-linejoin:round;stroke-width:2px"/></g></svg>