<svg xmlns="http://www.w3.org/2000/svg" width="120" height="80" viewBox="0 0 120 80"><title>nav</title><g id="Layer_1" data-name="Layer 1"><rect x="71.93" y="26.02" width="23.07" height="33.99" rx="1.63" ry="1.63" style="fill:none;stroke:#aab7b8;stroke-linejoin:round;stroke-width:2px"/><rect x="75.18" y="30.42" width="16.57" height="6.74" rx="1.13" ry="1.13" style="fill:none;stroke:#aab7b8;stroke-linejoin:round;stroke-width:2px"/><line x1="75.65" y1="41.51" x2="78.68" y2="41.51" style="fill:none;stroke:#aab7b8;stroke-linejoin:round;stroke-width:2px"/><line x1="81.94" y1="41.51" x2="84.98" y2="41.51" style="fill:none;stroke:#aab7b8;stroke-linejoin:round;stroke-width:2px"/><line x1="88.24" y1="41.51" x2="91.27" y2="41.51" style="fill:none;stroke:#aab7b8;stroke-linejoin:round;stroke-width:2px"/><line x1="75.65" y1="46.07" x2="78.68" y2="46.07" style="fill:none;stroke:#aab7b8;stroke-linejoin:round;stroke-width:2px"/><line x1="81.94" y1="46.07" x2="84.98" y2="46.07" style="fill:none;stroke:#aab7b8;stroke-linejoin:round;stroke-width:2px"/><line x1="88.24" y1="46.07" x2="91.27" y2="46.07" style="fill:none;stroke:#aab7b8;stroke-linejoin:round;stroke-width:2px"/><line x1="75.65" y1="50.64" x2="78.68" y2="50.64" style="fill:none;stroke:#aab7b8;stroke-linejoin:round;stroke-width:2px"/><line x1="81.94" y1="50.64" x2="84.98" y2="50.64" style="fill:none;stroke:#aab7b8;stroke-linejoin:round;stroke-width:2px"/><line x1="88.24" y1="50.64" x2="91.27" y2="50.64" style="fill:none;stroke:#aab7b8;stroke-linejoin:round;stroke-width:2px"/><line x1="75.65" y1="55.2" x2="78.68" y2="55.2" style="fill:none;stroke:#aab7b8;stroke-linejoin:round;stroke-width:2px"/><line x1="81.94" y1="55.2" x2="84.98" y2="55.2" style="fill:none;stroke:#aab7b8;stroke-linejoin:round;stroke-width:2px"/><line x1="88.24" y1="55.2" x2="91.27" y2="55.2" style="fill:none;stroke:#aab7b8;stroke-linejoin:round;stroke-width:2px"/><circle cx="7.95" cy="16.51" r="1.03" style="fill:#fff;stroke:#aab7b8;stroke-miterlimit:10"/><circle cx="12.59" cy="16.5" r="1.03" style="fill:#fff;stroke:#aab7b8;stroke-miterlimit:10"/><circle cx="17.24" cy="16.49" r="1.03" style="fill:#fff;stroke:#aab7b8;stroke-miterlimit:10"/><line x1="0.99" y1="21.54" x2="76.43" y2="21.54" style="fill:none;stroke:#aab7b8;stroke-linejoin:round;stroke-width:2px"/><path d="M76.43,23.41v-10c0-.88-.37-1.87-1.24-1.87H2.57A1.57,1.57,0,0,0,1,13.14v53a1.56,1.56,0,0,0,1.57,1.56H74.86a1.56,1.56,0,0,0,1.57-1.56V62.69" style="fill:none;stroke:#aab7b8;stroke-linejoin:round;stroke-width:2px"/><line x1="10.97" y1="21.54" x2="10.97" y2="67.67" style="fill:none;stroke:#aab7b8;stroke-linejoin:round;stroke-width:2px"/><rect x="19.38" y="27.46" width="6.87" height="6.87" style="fill:none;stroke:#aab7b8;stroke-linejoin:round;stroke-width:2px"/><line x1="30.92" y1="30.89" x2="67.7" y2="30.89" style="fill:none;stroke:#aab7b8;stroke-linejoin:round;stroke-width:2px"/><line x1="30.92" y1="44.61" x2="67.7" y2="44.61" style="fill:none;stroke:#aab7b8;stroke-linejoin:round;stroke-width:2px"/><line x1="30.92" y1="58.32" x2="67.7" y2="58.32" style="fill:none;stroke:#aab7b8;stroke-linejoin:round;stroke-width:2px"/><polyline points="20.32 43.98 22.81 46.48 29.67 39.62" style="fill:none;stroke:#aab7b8;stroke-linejoin:round;stroke-width:2px"/><polyline points="20.32 57.7 22.81 60.19 29.67 53.34" style="fill:none;stroke:#aab7b8;stroke-linejoin:round;stroke-width:2px"/></g></svg>