<svg xmlns="http://www.w3.org/2000/svg" width="120" height="120" viewBox="0 0 120 120"><title>nav-illo_Category-Customer-Enablement_120@500</title><g id="Illustrations"><circle cx="60.11" cy="52.66" r="9.14" style="fill:none;stroke:#aab7b8;stroke-linecap:round;stroke-linejoin:round;stroke-width:2px"/><path d="M75.65,82.89v0c0-11.63-7-21-15.54-21-6.51,0-12.08,5.4-14.4,13.08" style="fill:none;stroke:#aab7b8;stroke-linecap:round;stroke-linejoin:round;stroke-width:2px"/><polyline points="50.82 86.36 60.11 91.72 87.82 75.72 87.82 43.72 60.11 27.71 32.39 43.72 32.39 75.72 37.38 78.59" style="fill:none;stroke:#aab7b8;stroke-linecap:round;stroke-linejoin:round;stroke-width:2px"/><polygon points="97.88 93.65 97.88 84.65 90.09 80.16 82.3 84.65 82.3 93.65 90.09 98.14 97.88 93.65" style="fill:none;stroke:#aab7b8;stroke-linecap:round;stroke-linejoin:round;stroke-width:2px"/><polygon points="108.3 75.92 108.3 66.93 100.51 62.43 92.72 66.93 92.72 75.92 100.51 80.42 108.3 75.92" style="fill:none;stroke:#aab7b8;stroke-linecap:round;stroke-linejoin:round;stroke-width:2px"/><polygon points="118.72 93.65 118.72 84.65 110.94 80.16 103.15 84.65 103.15 93.65 110.94 98.14 118.72 93.65" style="fill:none;stroke:#aab7b8;stroke-linecap:round;stroke-linejoin:round;stroke-width:2px"/><polygon points="21.95 25.89 21.95 34.89 29.74 39.38 37.52 34.89 37.52 25.89 29.74 21.4 21.95 25.89" style="fill:none;stroke:#aab7b8;stroke-linecap:round;stroke-linejoin:round;stroke-width:2px"/><polygon points="11.53 43.62 11.53 52.61 19.31 57.11 27.1 52.61 27.1 43.62 19.31 39.13 11.53 43.62" style="fill:none;stroke:#aab7b8;stroke-linecap:round;stroke-linejoin:round;stroke-width:2px"/><polygon points="1.1 25.89 1.1 34.89 8.89 39.38 16.68 34.89 16.68 25.89 8.89 21.4 1.1 25.89" style="fill:none;stroke:#aab7b8;stroke-linecap:round;stroke-linejoin:round;stroke-width:2px"/><line x1="44.07" y1="77.63" x2="44.07" y2="87.5" style="fill:none;stroke:#aab7b8;stroke-linecap:round;stroke-linejoin:round;stroke-width:2px"/><line x1="49" y1="82.56" x2="39.13" y2="82.56" style="fill:none;stroke:#aab7b8;stroke-linecap:round;stroke-linejoin:round;stroke-width:2px"/><line x1="31.11" y1="82.99" x2="31.11" y2="88.76" style="fill:none;stroke:#aab7b8;stroke-linecap:round;stroke-linejoin:round;stroke-width:2px"/><line x1="34" y1="85.88" x2="28.22" y2="85.88" style="fill:none;stroke:#aab7b8;stroke-linecap:round;stroke-linejoin:round;stroke-width:2px"/><line x1="40.61" y1="93.99" x2="40.61" y2="98.76" style="fill:none;stroke:#aab7b8;stroke-linecap:round;stroke-linejoin:round;stroke-width:2px"/><line x1="43" y1="96.38" x2="38.22" y2="96.38" style="fill:none;stroke:#aab7b8;stroke-linecap:round;stroke-linejoin:round;stroke-width:2px"/></g></svg>