<svg xmlns="http://www.w3.org/2000/svg" width="120" height="80" viewBox="0 0 120 80"><title>nav</title><g id="Layer_1" data-name="Layer 1"><path d="M35.43,10.53,4.86,18V66.44" style="fill:none;stroke:#aab7b8;stroke-linejoin:round;stroke-width:2px"/><polyline points="69.88 14.36 35.44 9.76 0.99 15.12 0.99 64.87 4.87 66.53 35.55 60.68 58.8 65.6" style="fill:none;stroke:#aab7b8;stroke-linejoin:round;stroke-width:2px"/><polyline points="69.49 14.7 69.88 14.36 69.88 28.53" style="fill:none;stroke:#aab7b8;stroke-linejoin:round;stroke-width:2px"/><path d="M66.05,50.7V30.46c-.12-7.55,0-12.68,0-12.68L35.43,10.53" style="fill:none;stroke:#aab7b8;stroke-linejoin:round;stroke-width:2px"/><line x1="41.6" y1="33.52" x2="59.49" y2="36.88" style="fill:none;stroke:#aab7b8;stroke-linejoin:round;stroke-width:2px"/><line x1="41.6" y1="38.12" x2="54.83" y2="40.6" style="fill:none;stroke:#aab7b8;stroke-linejoin:round;stroke-width:2px"/><line x1="41.6" y1="28.93" x2="52.08" y2="30.87" style="fill:none;stroke:#aab7b8;stroke-linejoin:round;stroke-width:2px"/><line x1="41.6" y1="43.23" x2="57.63" y2="46.1" style="fill:none;stroke:#aab7b8;stroke-linejoin:round;stroke-width:2px"/><line x1="41.6" y1="48.08" x2="56.86" y2="51.46" style="fill:none;stroke:#aab7b8;stroke-linejoin:round;stroke-width:2px"/><line x1="35.5" y1="17.65" x2="35.5" y2="54.96" style="fill:none;stroke:#aab7b8;stroke-linejoin:round;stroke-width:2px"/><path d="M20.1,52.4V48.9a12,12,0,0,1-5.43-1.69v-2.3a21.8,21.8,0,0,0,3,1.28,11.23,11.23,0,0,0,2.45.5v-7l-1.21-.46a7.93,7.93,0,0,1-3.3-2,4.35,4.35,0,0,1-1.07-3,5.51,5.51,0,0,1,.68-2.71,5,5,0,0,1,1.94-1.95,6.75,6.75,0,0,1,3-.85V25.21h1.78v3.5A10.28,10.28,0,0,1,26.3,30.2v2.27a11.75,11.75,0,0,0-4.42-1.55v6.81l1.23.46a8.1,8.1,0,0,1,3.35,2,4.2,4.2,0,0,1,1.08,2.92,5.39,5.39,0,0,1-1.53,4,6.53,6.53,0,0,1-4.13,1.84v3.5ZM17,34.11a2.49,2.49,0,0,0,.72,1.82,6.08,6.08,0,0,0,2.36,1.31V30.89a3.37,3.37,0,0,0-2.27.95A3.12,3.12,0,0,0,17,34.11Zm8,9.13a2.45,2.45,0,0,0-.72-1.81,6.52,6.52,0,0,0-2.41-1.32v6.55a3.54,3.54,0,0,0,2.29-1.08A3.29,3.29,0,0,0,25,43.24Z" style="fill:#aab7b8"/><path d="M73,40.79a9.8,9.8,0,1,1,9.79,9.8A9.79,9.79,0,0,1,73,40.79" style="fill:none;stroke:#aab7b8;stroke-linejoin:round;stroke-width:2px"/><path d="M65.55,69.26H100a18,18,0,0,0-8.4-15.34,16.65,16.65,0,0,0-8.82-2.52C73.26,51.4,65.55,59.4,65.55,69.26Z" style="fill:none;stroke:#aab7b8;stroke-linejoin:round;stroke-width:2px"/></g></svg>