<svg xmlns="http://www.w3.org/2000/svg" width="120" height="80" viewBox="0 0 120 80"><title>nav</title><g id="Layer_1" data-name="Layer 1"><g id="Free_Tier" data-name="Free Tier"><g id="FreeTier"><path d="M54.34,53.25l12.89-6.57A3.23,3.23,0,0,1,72,49.56v1L49.42,62.08a4.65,4.65,0,0,1-2.13.52L36.16,61.4a44,44,0,0,0-8.35-.08l-3.42.29V52.89c3.55-4.7,9.68-4,15.21-2l.16.05H51.88a2.37,2.37,0,0,1,2.36,2.37v.05a2.37,2.37,0,0,1-2.36,2.37h-12" style="fill:none;stroke:#aab7b8;stroke-miterlimit:10;stroke-width:2px"/><rect x="21.2" y="48.19" width="3.19" height="15.81" style="fill:none;stroke:#aab7b8;stroke-miterlimit:10;stroke-width:2px"/><polygon points="38.16 25.56 38.16 18.75 32.27 15.35 26.37 18.75 26.37 25.56 32.27 28.96 38.16 25.56" style="fill:none;stroke:#aab7b8;stroke-miterlimit:10;stroke-width:2px"/><polygon points="32.27 22.11 38.12 18.73 32.27 15.35 26.41 18.73 32.27 22.11" style="fill:none;stroke:#aab7b8;stroke-linejoin:round;stroke-width:2px"/><polygon points="32.2 22.26 32.2 29.11 26.41 25.76 26.41 18.91 32.2 22.26" style="fill:none;stroke:#aab7b8;stroke-miterlimit:10;opacity:0.25"/><line x1="32.22" y1="22.15" x2="32.22" y2="28.96" style="fill:none;stroke:#aab7b8;stroke-linejoin:round;stroke-width:2px"/><line x1="6.05" y1="48.19" x2="0.99" y2="48.19" style="fill:none;stroke:#aab7b8;stroke-miterlimit:10;stroke-width:2px"/><line x1="5.97" y1="56.41" x2="0.99" y2="56.41" style="fill:none;stroke:#aab7b8;stroke-miterlimit:10;stroke-width:2px"/><line x1="18.29" y1="56.41" x2="7.11" y2="56.41" style="fill:none;stroke:#aab7b8;stroke-miterlimit:10;stroke-width:2px"/><polygon points="67.42 22.06 67.42 15.26 61.53 11.85 55.63 15.26 55.63 22.06 61.53 25.47 67.42 22.06" style="fill:none;stroke:#aab7b8;stroke-miterlimit:10;stroke-width:2px"/><polygon points="61.53 18.61 67.38 15.23 61.53 11.85 55.67 15.23 61.53 18.61" style="fill:none;stroke:#aab7b8;stroke-linejoin:round;stroke-width:2px"/><polygon points="61.46 18.77 61.46 25.62 55.67 22.27 55.67 15.41 61.46 18.77" style="fill:none;stroke:#aab7b8;stroke-miterlimit:10;opacity:0.25"/><line x1="61.48" y1="18.65" x2="61.48" y2="25.47" style="fill:none;stroke:#aab7b8;stroke-linejoin:round;stroke-width:2px"/><polyline points="0.99 64 21.2 64 21.2 48.19 7.11 48.19" style="fill:none;stroke:#aab7b8;stroke-miterlimit:10;stroke-width:2px"/><polygon points="49.26 33.18 58.02 28.12 49.26 23.07 40.51 28.12 49.26 33.18" style="fill:none;stroke:#aab7b8;stroke-linejoin:round;stroke-width:2px"/><polygon points="49.16 33.2 49.16 43.45 40.51 38.44 40.51 28.19 49.16 33.2" style="fill:none;stroke:#aab7b8;stroke-miterlimit:10;opacity:0.25"/><polygon points="58.08 38.34 58.08 28.16 49.26 23.07 40.45 28.16 40.45 38.34 49.26 43.43 58.08 38.34" style="fill:none;stroke:#aab7b8;stroke-miterlimit:10;stroke-width:2px"/><line x1="44.29" y1="43.68" x2="44.29" y2="44.97" style="fill:none;stroke:#aab7b8;stroke-miterlimit:10;stroke-width:2px"/><line x1="44.29" y1="45.88" x2="44.29" y2="47.35" style="fill:none;stroke:#aab7b8;stroke-miterlimit:10;stroke-width:2px"/><line x1="54.77" y1="43.59" x2="54.77" y2="46.56" style="fill:none;stroke:#aab7b8;stroke-miterlimit:10;stroke-width:2px"/><line x1="54.77" y1="47.47" x2="54.77" y2="48.94" style="fill:none;stroke:#aab7b8;stroke-miterlimit:10;stroke-width:2px"/><polyline points="58.1 41.63 58.1 42.56 58.1 43.5 58.1 45.15" style="fill:none;stroke:#aab7b8;stroke-miterlimit:10;stroke-width:2px"/><polyline points="40.3 41.63 40.3 42.56 40.3 43.5 40.3 45.15" style="fill:none;stroke:#aab7b8;stroke-miterlimit:10;stroke-width:2px"/><line x1="49.22" y1="46.34" x2="49.22" y2="48.61" style="fill:none;stroke:#aab7b8;stroke-miterlimit:10;stroke-width:2px"/><line x1="49.18" y1="33.07" x2="49.18" y2="43.32" style="fill:none;stroke:#aab7b8;stroke-miterlimit:10;stroke-width:2px"/></g></g><path d="M6.12,37a4.28,4.28,0,0,0-4.19,3.43" style="fill:none;stroke:#aab7b8;stroke-miterlimit:10;stroke-width:2px"/><path d="M24.84,32.54a4.42,4.42,0,0,0-5.3.26A6.14,6.14,0,0,0,7.91,35.56a6.18,6.18,0,0,0,.33,2A4.13,4.13,0,0,0,6.12,37" style="fill:none;stroke:#aab7b8;stroke-miterlimit:10;stroke-width:2px"/><path d="M86.4,43.89A7.32,7.32,0,0,0,76.09,41a2.93,2.93,0,0,0-2.84-2.2,3.44,3.44,0,0,0-.46,0A4.86,4.86,0,0,0,73,37.47a5,5,0,0,0-6.92-4.59" style="fill:none;stroke:#aab7b8;stroke-miterlimit:10;stroke-width:2px"/><path d="M97.65,40A6.1,6.1,0,0,0,98,38a6.17,6.17,0,0,0-6.17-6.17,6,6,0,0,0-1.76.26,10.7,10.7,0,0,0-2.62-4l-1.08-.91a10.77,10.77,0,0,0-1.64-1l-2-.73a10.68,10.68,0,0,0-2.67-.34,10.53,10.53,0,0,0-6.38,2.13" style="fill:none;stroke:#aab7b8;stroke-miterlimit:10;stroke-width:2px"/></g></svg>