<svg id="Layer_1" data-name="Layer 1" xmlns="http://www.w3.org/2000/svg" width="300" height="45" viewBox="0 0 300 45"><title>reinvent_nav_logo-3</title><path d="M8.91,14.25,7.83,11.14H3L2,14.25H.2L4.52,2.54H6.38L10.7,14.25ZM3.46,9.84H7.39l-2-5.75Z" style="fill:#fff"/><path d="M19.73,14.25,17.51,5.07l-2.23,9.18H13.36L9.94,2.54h1.88l2.52,9.81,2.24-9.47h1.9l2.24,9.49,2.54-9.83h1.8L21.65,14.25Z" style="fill:#fff"/><path d="M28.4,8.69a4.68,4.68,0,0,1-2-1.27,2.81,2.81,0,0,1-.63-1.88,3.08,3.08,0,0,1,.47-1.68,3.22,3.22,0,0,1,1.36-1.15,4.73,4.73,0,0,1,2.09-.43,9,9,0,0,1,3.13.61V4.26a10.39,10.39,0,0,0-3-.52,2.87,2.87,0,0,0-1.7.44,1.51,1.51,0,0,0-.6,1.28,1.42,1.42,0,0,0,.41,1.07,4.51,4.51,0,0,0,1.5.81L31,7.91a4.73,4.73,0,0,1,2,1.22,2.8,2.8,0,0,1,.6,1.85,3.19,3.19,0,0,1-1.16,2.59,4.73,4.73,0,0,1-3.12,1,7.76,7.76,0,0,1-3.38-.69V12.49a10.72,10.72,0,0,0,3.35.59,3.09,3.09,0,0,0,1.88-.52,1.7,1.7,0,0,0,.69-1.42,1.45,1.45,0,0,0-.4-1A3.83,3.83,0,0,0,30,9.31Z" style="fill:#fff"/><path d="M42.94,41V2.46h3.28V41Z" style="fill:#fff"/><path d="M72.73,41V22c0-2.4-.46-4.16-1.39-5.25a5.54,5.54,0,0,0-4.45-1.64,19.21,19.21,0,0,0-10.84,3.56V41H52.88V13h2.78L56,16.25a22.56,22.56,0,0,1,5.72-3,17.41,17.41,0,0,1,5.84-1.06,8.4,8.4,0,0,1,6.2,2.14c1.42,1.43,2.14,3.53,2.14,6.31V41Z" style="fill:#fff"/><path d="M88.81,41,77.52,13H81l9.56,24.69L100.09,13h3.34L92.14,41Z" style="fill:#fff"/><path d="M106.7,27.53c0,3.9.89,6.77,2.55,8.62s4.25,2.78,7.73,2.78a22.35,22.35,0,0,0,9.17-2V39.6a18.85,18.85,0,0,1-9.39,2.22q-6.62,0-10-3.75t-3.34-11.15q0-7,3.36-10.87t9.43-3.86q5.05,0,7.75,2.89t2.7,8.28a22,22,0,0,1-.33,4.17ZM116,15q-8.79,0-9.28,10h16.9c0-.52.05-1.13.05-1.84q0-4-1.94-6.06A7.53,7.53,0,0,0,116,15Z" style="fill:#fff"/><path d="M150.76,41V22c0-2.4-.47-4.16-1.39-5.25a5.54,5.54,0,0,0-4.45-1.64,19.19,19.19,0,0,0-10.84,3.56V41h-3.17V13h2.78l.33,3.23a22.78,22.78,0,0,1,5.73-3,17.41,17.41,0,0,1,5.84-1.06,8.4,8.4,0,0,1,6.2,2.14c1.42,1.43,2.14,3.53,2.14,6.31V41Z" style="fill:#fff"/><path d="M173.83,40.38a14.94,14.94,0,0,1-5.61.94,6.67,6.67,0,0,1-5-1.75,7,7,0,0,1-1.73-5.09V15.8h-5.22V13.58l5.33-.5.45-8.17h2.61V13h8.9V15.8h-8.9V34.32a4.37,4.37,0,0,0,1,3.22,4.6,4.6,0,0,0,3.26,1,20.75,20.75,0,0,0,4.94-.67Z" style="fill:#fff"/><path d="M.89,41V22.41H2.74L3,25.11a9.34,9.34,0,0,1,2.75-2.2,7,7,0,0,1,3.05-.64,11.37,11.37,0,0,1,1.51.11v1.88c-.64-.05-1.22-.07-1.73-.07a7,7,0,0,0-3,.62,7.9,7.9,0,0,0-2.53,2V41Z" style="fill:#fff"/><path d="M13.77,32.05c0,2.59.59,4.49,1.7,5.72s2.81,1.85,5.13,1.85a14.9,14.9,0,0,0,6.09-1.29v1.73a12.47,12.47,0,0,1-6.24,1.48q-4.39,0-6.61-2.49c-1.48-1.66-2.21-4.13-2.21-7.4,0-3.11.74-5.51,2.23-7.22a7.86,7.86,0,0,1,6.26-2.57,6.71,6.71,0,0,1,5.15,1.92,7.8,7.8,0,0,1,1.79,5.5,14.29,14.29,0,0,1-.22,2.77Zm6.16-8.31q-5.84,0-6.16,6.61H25c0-.34,0-.75,0-1.22a5.65,5.65,0,0,0-1.29-4A5,5,0,0,0,19.93,23.74Z" style="fill:#fff"/><path d="M32,25.63a1.6,1.6,0,0,1-1.2-.48,1.68,1.68,0,0,1-.46-1.22,1.73,1.73,0,0,1,.46-1.26,1.74,1.74,0,0,1,2.4,0,1.73,1.73,0,0,1,.46,1.26,1.68,1.68,0,0,1-.46,1.22A1.6,1.6,0,0,1,32,25.63Zm0,15.58a1.6,1.6,0,0,1-1.2-.48,1.68,1.68,0,0,1-.46-1.22,1.73,1.73,0,0,1,.46-1.26,1.74,1.74,0,0,1,2.4,0,1.73,1.73,0,0,1,.46,1.26,1.68,1.68,0,0,1-.46,1.22A1.6,1.6,0,0,1,32,41.21Z" style="fill:#fff"/></svg>